<svg width="25" height="28" viewBox="0 0 25 28" fill="none" xmlns="http://www.w3.org/2000/svg">
<path d="M19.055 9.32641C15.8964 7.55978 10.8268 4.72297 2.9635 0.320116C2.43336 -0.0300037 1.8234 -0.0758861 1.29639 0.102493L14.7876 13.5937L19.055 9.32641Z" fill="#32BBFF"/>
<path d="M1.29645 0.102478C1.19767 0.135934 1.10155 0.176294 1.00963 0.225044C0.427652 0.539849 0 1.14561 0 1.91176V25.2757C0 26.0419 0.427599 26.6476 1.00963 26.9624C1.10139 27.0111 1.19746 27.0516 1.29613 27.0853L14.7877 13.5937L1.29645 0.102478Z" fill="#32BBFF"/>
<path d="M14.7877 13.5938L1.29614 27.0853C1.82331 27.265 2.43327 27.2226 2.96358 26.8674C10.5893 22.5972 15.6018 19.794 18.7969 18.0124C18.8858 17.9624 18.973 17.9136 19.0591 17.8652L14.7877 13.5938Z" fill="#32BBFF"/>
<path d="M0 13.5938V25.2757C0 26.0419 0.427599 26.6476 1.00963 26.9624C1.10139 27.0111 1.19746 27.0516 1.29613 27.0853L14.7877 13.5938H0Z" fill="#2C9FD9"/>
<path d="M2.96346 0.32011C2.3339 -0.0955933 1.5915 -0.083751 1.00952 0.225106L14.5828 13.7985L19.0549 9.32641C15.8964 7.55977 10.8268 4.72297 2.96346 0.32011Z" fill="#29CC5E"/>
<path d="M14.5829 13.3891L1.00952 26.9624C1.59155 27.2712 2.3339 27.289 2.96346 26.8674C10.5892 22.5972 15.6016 19.7941 18.7967 18.0124C18.8857 17.9624 18.9728 17.9136 19.059 17.8652L14.5829 13.3891Z" fill="#D93F21"/>
<path d="M24.6883 13.5938C24.6883 12.9464 24.3616 12.2931 23.7142 11.9308C23.7142 11.9308 22.5035 11.2553 18.7924 9.17953L14.3782 13.5938L18.7967 18.0123C22.4671 15.9515 23.7142 15.2566 23.7142 15.2566C24.3616 14.8944 24.6883 14.2411 24.6883 13.5938Z" fill="#FFD500"/>
<path d="M23.7142 15.2567C24.3616 14.8944 24.6883 14.2411 24.6883 13.5938H14.3782L18.7967 18.0123C22.4671 15.9515 23.7142 15.2567 23.7142 15.2567Z" fill="#FFAA00"/>
</svg>
