<svg xmlns="http://www.w3.org/2000/svg" viewBox="0 0 600 600" width="600" height="600" preserveAspectRatio="xMidYMid meet" style="width: 100%; height: 100%; transform: translate3d(0px, 0px, 0px);"><defs><clipPath id="__lottie_element_2"><rect width="600" height="600" x="0" y="0"></rect></clipPath></defs><g clip-path="url(#__lottie_element_2)"><g transform="matrix(1.2249202728271484,0,0,1,300.22491455078125,291)" opacity="0.1570659243824344" style="display: block;"><g opacity="1" transform="matrix(1,0,0,1,-1.5,193.5)"><path fill="rgb(114,114,114)" fill-opacity="1" d=" M0,-9.5 C43.32415008544922,-9.5 78.5,-5.2430500984191895 78.5,0 C78.5,5.2430500984191895 43.32415008544922,9.5 0,9.5 C-43.32415008544922,9.5 -78.5,5.2430500984191895 -78.5,0 C-78.5,-5.2430500984191895 -43.32415008544922,-9.5 0,-9.5z"></path></g></g><g transform="matrix(0.25795772671699524,0,0,0.24204227328300476,149.99758911132812,205.3653564453125)" opacity="1" style="display: block;"><g opacity="1" transform="matrix(1,0,0,1,545.2130126953125,545.2169799804688)"><path fill="rgb(0,11,29)" fill-opacity="1" d=" M512,0 C512,282.7699890136719 282.7699890136719,512 0,512 C-282.7699890136719,512 -512,282.7699890136719 -512,0 C-512,-282.7699890136719 -282.7699890136719,-512 0,-512 C282.7699890136719,-512 512,-282.7699890136719 512,0z"></path></g></g><g style="display: none;" transform="matrix(1,0,0,1,300,300)" opacity="1"><g opacity="1" transform="matrix(1,0,0,1,0,0)"><path fill="rgb(104,224,177)" fill-opacity="1" d=" M-29.2247371673584,-213.4431610107422 C-184.72622680664062,-189.43536376953125 -159.46371459960938,55.85531234741211 -16.155954360961914,55.43592071533203 C-11.099953651428223,55.42082595825195 -3.4287991523742676,54.247467041015625 2.5712008476257324,53.497467041015625 C14.977200508117676,51.94646453857422 19.628488540649414,-210.02589416503906 11.909615516662598,-211.4534912109375 C2.6973788738250732,-213.1405029296875 -13.762385368347168,-215.8347930908203 -29.2247371673584,-213.4431610107422z"></path></g></g><g transform="matrix(0.25881510972976685,0,0,0.24118489027023315,158.8163604736328,212.58175659179688)" opacity="1" style="display: block;"><g opacity="1" transform="matrix(1,0,0,1,545.2130126953125,545.2169799804688)"><path fill="rgb(1,15,37)" fill-opacity="1" d=" M512,0 C512,282.7699890136719 282.7699890136719,512 0,512 C-282.7699890136719,512 -512,282.7699890136719 -512,0 C-512,-282.7699890136719 -282.7699890136719,-512 0,-512 C282.7699890136719,-512 512,-282.7699890136719 512,0z"></path></g><g opacity="1" transform="matrix(1,0,0,1,535.864990234375,535.5469970703125)"><path fill="rgb(255,255,255)" fill-opacity="1" d=" M234.78799438476562,-56.16699981689453 C252.69400024414062,-138.80999755859375 163.52000427246094,-179.54299926757812 123.03199768066406,-191.8769989013672 C123.03199768066406,-191.8769989013672 145.53900146484375,-284.8110046386719 145.53900146484375,-284.8110046386719 C145.53900146484375,-284.8110046386719 88.33999633789062,-298.98699951171875 88.33999633789062,-298.98699951171875 C88.33999633789062,-298.98699951171875 67.85299682617188,-208.93899536132812 67.85299682617188,-208.93899536132812 C67.85299682617188,-208.93899536132812 23.339000701904297,-219.56399536132812 23.339000701904297,-219.56399536132812 C23.339000701904297,-219.56399536132812 42.987998962402344,-310.32501220703125 42.987998962402344,-310.32501220703125 C42.987998962402344,-310.32501220703125 -11.28499984741211,-323.65399169921875 -11.28499984741211,-323.65399169921875 C-11.28499984741211,-323.65399169921875 -35.43299865722656,-230.9600067138672 -35.43299865722656,-230.9600067138672 C-35.43299865722656,-230.9600067138672 -147.41799926757812,-259.39898681640625 -147.41799926757812,-259.39898681640625 C-147.41799926757812,-259.39898681640625 -158.9320068359375,-214.7239990234375 -162.5,-199.73800659179688 C-113.29399871826172,-187.52099609375 -103.76000213623047,-185.1219940185547 -98.41000366210938,-173 C-93.26699829101562,-161.3470001220703 -96.9280014038086,-158.4770050048828 -128.0260009765625,-31.601999282836914 C-157.42300415039062,88.33499908447266 -157.75799560546875,97.88800048828125 -166.6580047607422,105.79900360107422 C-176.4600067138672,114.51200103759766 -212.50599670410156,102.0739974975586 -225.46800231933594,98.9010009765625 C-233.45399475097656,116.3270034790039 -252.69400024414062,163.52000427246094 -252.69400024414062,163.52000427246094 C-252.69400024414062,163.52000427246094 -140.52099609375,192.56199645996094 -140.52099609375,192.56199645996094 C-140.52099609375,192.56199645996094 -163.59500122070312,284.9320068359375 -163.59500122070312,284.9320068359375 C-163.59500122070312,284.9320068359375 -107.48600006103516,298.9259948730469 -107.48600006103516,298.9259948730469 C-107.48600006103516,298.9259948730469 -83.88999938964844,207.44500732421875 -83.88999938964844,207.44500732421875 C-83.88999938964844,207.44500732421875 -39.9640007019043,218.697998046875 -39.9640007019043,218.697998046875 C-39.9640007019043,218.697998046875 -61.88800048828125,309.4809875488281 -61.88800048828125,309.4809875488281 C-61.88800048828125,309.4809875488281 -6.14300012588501,323.65399169921875 -6.14300012588501,323.65399169921875 C-6.14300012588501,323.65399169921875 7.3470001220703125,268.7950134277344 17.030000686645508,231.76800537109375 C69.94000244140625,240.27099609375 171.50799560546875,261.4230041503906 212.11199951171875,162.08799743652344 C252.63099670410156,62.9630012512207 180.37899780273438,29.216999053955078 164.41700744628906,19.670000076293945 C185.4709930419922,12.503000259399414 222.5050048828125,0.5230000019073486 234.78799438476562,-56.16699981689453z M106.2699966430664,115.2229995727539 C85.90399932861328,197.25599670410156 -65.73899841308594,136.656005859375 -65.73899841308594,136.656005859375 C-65.73899841308594,136.656005859375 -34.88199996948242,15.043999671936035 -34.88199996948242,15.043999671936035 C-34.88199996948242,15.043999671936035 125.5530014038086,37.551998138427734 106.2699966430664,115.2229995727539z M123.03199768066406,-61.91600036621094 C101.61399841308594,6.331999778747559 -21.086999893188477,-42.67599868774414 -21.086999893188477,-42.67599868774414 C-21.086999893188477,-42.67599868774414 7.3470001220703125,-153.03399658203125 7.3470001220703125,-153.03399658203125 C7.3470001220703125,-153.03399658203125 145.75799560546875,-134.3300018310547 123.03199768066406,-61.91600036621094z"></path></g></g><g style="display: none;" transform="matrix(1,0,0,1,300,170)" opacity="1"><g opacity="1" transform="matrix(1,0,0,1,0,0)"><path stroke-linecap="butt" stroke-linejoin="miter" fill-opacity="0" stroke-miterlimit="4" stroke="rgb(209,125,24)" stroke-opacity="1" stroke-width="4" d=" M-124,112 C-119.27300262451172,115.8219985961914 -113.61000061035156,119.2040023803711 -107.19999694824219,122.16799926757812 M-160,12 C-153.7209930419922,17.28499984741211 -146.13800048828125,22.0310001373291 -137.52000427246094,26.243999481201172 M-121,-82 C-116.36000061035156,-78.24800109863281 -110.86699676513672,-74.88700103759766 -104.69200134277344,-71.9020004272461"></path></g></g></g></svg>